<?xml version="1.0" encoding="UTF-8"?>
<svg version="1.1" xmlns="http://www.w3.org/2000/svg" xmlns:xlink="http://www.w3.org/1999/xlink" width="1024" height="1024" viewBox="0 0 1024 1024" >
  <style>
    .SFSymbolsPreviewFFCC00 {fill:#FFCC00;opacity:1.0}
    .SFSymbolsPreviewFFFFFF {fill:#FFFFFF;opacity:1.0}
  </style>

  <rect style="fill:#0F172A;opacity:1" height="1024" width="1024" x="0" y="0"/>
  
  <g id="Regular-S" transform="matrix(7 0 0 7 90 750)">
    <path class="monochrome-0 multicolor-0:white hierarchical-0:primary SFSymbolsPreviewFFFFFF" d="M20.1172 1.80664L61.377 1.80664C72.4121 1.80664 80.9082-6.54297 80.9082-17.3828C80.9082-28.125 72.2656-36.2305 60.6445-36.3281C56.25-44.6777 48.1934-49.707 38.916-49.707C26.2695-49.707 15.5762-40.0391 14.4043-27.4414C8.00781-25.4395 3.85742-19.873 3.85742-13.0371C3.85742-4.24805 10.4004 1.80664 20.1172 1.80664Z"/>
    <path class="monochrome-1 multicolor-1:systemYellowColor hierarchical-1:secondary SFSymbolsPreviewFFCC00" d="M85.7422-19.3359C91.2109-23.2422 94.4824-29.0527 94.4824-35.6445C94.4824-46.2891 85.9375-54.834 75.293-54.834C68.6035-54.834 62.6953-51.3672 59.3262-46.1426C60.9863-44.5312 62.3535-42.7734 63.5742-40.4785C76.4648-39.4531 84.8145-31.4453 85.7422-19.3359ZM75.293-60.6934C77.3438-60.6934 78.9551-62.3535 78.9551-64.3555L78.9551-71.9727C78.9551-73.9746 77.3438-75.6348 75.293-75.6348C73.291-75.6348 71.6309-73.9746 71.6309-71.9727L71.6309-64.3555C71.6309-62.3535 73.291-60.6934 75.293-60.6934ZM103.955-31.9824L111.572-31.9824C113.574-31.9824 115.186-33.5938 115.186-35.6445C115.186-37.6465 113.574-39.3066 111.572-39.3066L103.955-39.3066C102.002-39.3066 100.293-37.6465 100.293-35.6445C100.293-33.5938 102.002-31.9824 103.955-31.9824ZM98.4375-7.32422C99.8535-5.9082 102.148-5.95703 103.564-7.37305C104.98-8.78906 104.98-11.1328 103.564-12.5L98.0957-17.9199C96.6797-19.2871 94.3848-19.2871 92.9688-17.9199C91.6016-16.5039 91.6016-14.1602 92.9688-12.7441ZM92.9688-53.3203C94.3359-51.9043 96.7285-51.8555 98.1934-53.3203L103.564-58.7402C104.98-60.1074 104.98-62.4512 103.564-63.8672C102.148-65.2832 99.8535-65.2832 98.4375-63.8672L92.9688-58.3984C91.6016-57.0312 91.6504-54.6875 92.9688-53.3203ZM52.4414-53.3203C53.9062-51.8555 56.2988-51.9043 57.6172-53.3203C58.9844-54.6875 59.0332-57.0312 57.6172-58.3984L52.1484-63.8672C50.7812-65.2832 48.4863-65.2832 47.0703-63.8672C45.6543-62.4512 45.6543-60.1074 47.0703-58.7402Z"/>
  </g>
</svg>
